# Blender v2.91.2 OBJ File: 'border.blend'
# www.blender.org
mtllib border.mtl
o Cylinder.001
v 0.288740 0.015817 0.004154
v 0.276678 0.007332 0.016215
v 0.305353 0.013220 -0.012460
v 0.287780 0.015679 0.005113
v 0.275996 0.006886 0.016897
v 0.304578 0.013564 -0.011685
v 0.286833 0.015488 0.006060
v 0.275293 0.006495 0.017600
v 0.303774 0.013895 -0.010881
v 0.285899 0.015257 0.006994
v 0.274593 0.006082 0.018301
v 0.302944 0.014233 -0.010050
v 0.284982 0.014986 0.007911
v 0.274025 0.005715 0.018868
v 0.302088 0.014544 -0.009195
v 0.284084 0.014653 0.008810
v 0.273592 0.005362 0.019301
v 0.301210 0.014829 -0.008317
v 0.283206 0.014225 0.009688
v 0.273151 0.004883 0.019742
v 0.300311 0.015085 -0.007418
v 0.282350 0.013650 0.010543
v 0.272824 0.004399 0.020069
v 0.299394 0.015312 -0.006501
v 0.272653 0.003813 0.020240
v 0.281770 0.013136 0.011123
v 0.298461 0.015510 -0.005568
v 0.272662 0.003192 0.020231
v 0.281283 0.012651 0.011610
v 0.297513 0.015679 -0.004620
v 0.272871 0.002561 0.020022
v 0.280759 0.012086 0.012135
v 0.296554 0.015817 -0.003661
v 0.280265 0.011509 0.012628
v 0.273118 0.001930 0.019775
v 0.295586 0.015925 -0.002692
v 0.279880 0.011040 0.013013
v 0.273184 0.001303 0.019709
v 0.294610 0.016002 -0.001717
v 0.279464 0.010506 0.013430
v 0.273352 0.000681 0.019541
v 0.278996 0.009895 0.013897
v 0.293630 0.016049 -0.000736
v 0.278598 0.009397 0.014295
v 0.292647 0.016064 0.000246
v 0.312546 0.001303 -0.019652
v 0.278098 0.008781 0.014796
v 0.291664 0.016049 0.001229
v 0.312612 0.001930 -0.019718
v 0.277626 0.008237 0.015267
v 0.290684 0.016002 0.002209
v 0.312651 0.002561 -0.019758
v 0.277174 0.007775 0.015719
v 0.289708 0.015925 0.003185
v 0.312653 0.003192 -0.019760
v 0.306097 0.012796 -0.013204
v 0.307487 0.011947 -0.014594
v 0.306809 0.012404 -0.013916
v 0.308734 0.011003 -0.015841
v 0.309848 0.009920 -0.016954
v 0.309322 0.010443 -0.016428
v 0.311205 0.008250 -0.018312
v 0.310796 0.008784 -0.017903
v 0.311911 0.006929 -0.019018
v 0.311581 0.007617 -0.018688
v 0.310365 0.009348 -0.017472
v 0.312323 0.005703 -0.019430
v 0.312459 0.005081 -0.019565
v 0.312618 0.003824 -0.019725
v 0.312568 0.004454 -0.019675
v 0.312140 0.006320 -0.019247
v 0.308129 0.011479 -0.015236
v -0.288740 0.015817 0.004154
v -0.277174 0.007775 0.015719
v -0.306097 0.012796 -0.013204
v -0.305353 0.013220 -0.012460
v -0.287780 0.015679 0.005113
v -0.276678 0.007332 0.016215
v -0.304578 0.013564 -0.011685
v -0.286833 0.015488 0.006060
v -0.275996 0.006886 0.016897
v -0.303774 0.013895 -0.010881
v -0.285899 0.015257 0.006994
v -0.275293 0.006495 0.017600
v -0.302944 0.014233 -0.010050
v -0.284982 0.014986 0.007911
v -0.274593 0.006082 0.018301
v -0.302088 0.014544 -0.009195
v -0.284084 0.014653 0.008810
v -0.274025 0.005715 0.018868
v -0.301210 0.014829 -0.008317
v -0.283206 0.014225 0.009688
v -0.273592 0.005362 0.019301
v -0.300311 0.015085 -0.007418
v -0.282350 0.013650 0.010543
v -0.273151 0.004883 0.019742
v -0.299394 0.015312 -0.006501
v -0.281770 0.013136 0.011123
v -0.272824 0.004399 0.020069
v -0.298461 0.015510 -0.005568
v -0.281283 0.012651 0.011610
v -0.272653 0.003813 0.020240
v -0.297513 0.015679 -0.004620
v -0.280758 0.012086 0.012135
v -0.272662 0.003192 0.020231
v -0.280265 0.011509 0.012628
v -0.296554 0.015817 -0.003661
v -0.272871 0.002561 0.020022
v -0.279880 0.011040 0.013013
v -0.273118 0.001930 0.019775
v -0.295586 0.015925 -0.002692
v -0.279464 0.010506 0.013430
v -0.273184 0.001303 0.019709
v -0.294610 0.016002 -0.001717
v -0.278996 0.009895 0.013897
v -0.273352 0.000681 0.019541
v -0.293630 0.016049 -0.000736
v -0.278598 0.009397 0.014295
v -0.312546 0.001303 -0.019652
v -0.292647 0.016064 0.000246
v -0.312612 0.001930 -0.019718
v -0.278098 0.008781 0.014796
v -0.291664 0.016049 0.001229
v -0.312651 0.002561 -0.019758
v -0.277626 0.008237 0.015267
v -0.290684 0.016002 0.002210
v -0.312653 0.003192 -0.019760
v -0.289708 0.015925 0.003185
v -0.312618 0.003824 -0.019725
v -0.312323 0.005703 -0.019430
v -0.312458 0.005081 -0.019565
v -0.312568 0.004454 -0.019675
v -0.311911 0.006929 -0.019018
v -0.311205 0.008250 -0.018312
v -0.311581 0.007617 -0.018688
v -0.309848 0.009920 -0.016954
v -0.310365 0.009348 -0.017472
v -0.309322 0.010443 -0.016428
v -0.308734 0.011003 -0.015841
v -0.310796 0.008784 -0.017903
v -0.312140 0.006320 -0.019247
v -0.308129 0.011479 -0.015236
v -0.307487 0.011947 -0.014594
v -0.306809 0.012404 -0.013916
vt 0.992188 0.614315
vt 1.000000 0.614300
vt 1.000000 0.885700
vt 0.992188 0.885685
vt 0.984375 0.614337
vt 0.984375 0.885663
vt 0.976562 0.614385
vt 0.976562 0.885615
vt 0.968750 0.614443
vt 0.968750 0.885557
vt 0.960938 0.614523
vt 0.960937 0.885477
vt 0.953125 0.614622
vt 0.953125 0.885378
vt 0.945312 0.614765
vt 0.945312 0.885235
vt 0.937500 0.614928
vt 0.937500 0.885072
vt 0.929688 0.615106
vt 0.929688 0.884894
vt 0.921875 0.615293
vt 0.921875 0.884707
vt 0.914062 0.615517
vt 0.914062 0.884483
vt 0.906250 0.884254
vt 0.906250 0.615746
vt 0.898438 0.883999
vt 0.898438 0.616001
vt 0.890625 0.883736
vt 0.890625 0.616263
vt 0.882812 0.883458
vt 0.882812 0.616542
vt 0.875000 0.883164
vt 0.875000 0.616836
vt 0.867187 0.882854
vt 0.867188 0.617146
vt 0.859375 0.882532
vt 0.859375 0.617468
vt 0.851562 0.882195
vt 0.851562 0.617805
vt 0.843750 0.881847
vt 0.843750 0.618153
vt 0.835938 0.881486
vt 0.835938 0.618514
vt 0.828125 0.881114
vt 0.828125 0.618886
vt 0.820313 0.880733
vt 0.820312 0.619267
vt 0.812500 0.880343
vt 0.812500 0.619657
vt 0.804687 0.879945
vt 0.804687 0.620055
vt 0.796875 0.879540
vt 0.796875 0.620460
vt 0.789062 0.879129
vt 0.789062 0.620871
vt 0.781250 0.878713
vt 0.781250 0.621287
vt 0.773438 0.878293
vt 0.773438 0.621707
vt 0.765625 0.877869
vt 0.765625 0.622131
vt 0.757812 0.877443
vt 0.757812 0.622557
vt 0.750000 0.877017
vt 0.750000 0.622983
vt 0.742187 0.876591
vt 0.742188 0.623410
vt 0.734375 0.876165
vt 0.734375 0.623835
vt 0.726562 0.875741
vt 0.726562 0.624259
vt 0.718750 0.875321
vt 0.718750 0.624679
vt 0.710938 0.874905
vt 0.710938 0.625095
vt 0.703125 0.874493
vt 0.703125 0.625506
vt 0.695312 0.874089
vt 0.695312 0.625911
vt 0.687500 0.873690
vt 0.687500 0.626310
vt 0.679688 0.873301
vt 0.679688 0.626700
vt 0.671875 0.872919
vt 0.671875 0.627081
vt 0.664062 0.872548
vt 0.664062 0.627452
vt 0.656250 0.872296
vt 0.656250 0.627704
vt 0.648438 0.872085
vt 0.648438 0.627915
vt 0.640625 0.871857
vt 0.640625 0.628143
vt 0.632813 0.871643
vt 0.632812 0.628358
vt 0.625000 0.871476
vt 0.625000 0.628524
vt 0.617188 0.871295
vt 0.617188 0.628705
vt 0.609375 0.871092
vt 0.609375 0.628908
vt 0.601562 0.870920
vt 0.601562 0.629080
vt 0.593750 0.870702
vt 0.593750 0.629298
vt 0.585938 0.870498
vt 0.585938 0.629502
vt 0.578125 0.870301
vt 0.578125 0.629699
vt 0.570312 0.870086
vt 0.570312 0.629914
vt 0.562500 0.869790
vt 0.562500 0.630210
vt 0.554688 0.869485
vt 0.554688 0.630515
vt 0.546875 0.869181
vt 0.546875 0.630819
vt 0.539062 0.868935
vt 0.539062 0.631065
vt 0.531250 0.868746
vt 0.531250 0.631254
vt 0.523438 0.868555
vt 0.523438 0.631445
vt 0.515625 0.868413
vt 0.515625 0.631587
vt 0.507812 0.868339
vt 0.507812 0.631661
vt 0.500000 0.868343
vt 0.500000 0.631657
vt 0.492188 0.868434
vt 0.492188 0.631566
vt 0.484375 0.868541
vt 0.484375 0.631459
vt 0.476563 0.868569
vt 0.476562 0.631431
vt 0.468750 0.868642
vt 0.468750 0.631358
vt 0.015625 0.885682
vt 0.015625 0.614318
vt 0.023438 0.614346
vt 0.023438 0.885654
vt 0.007812 0.885699
vt 0.007812 0.614301
vt 0.000000 0.885700
vt 0.000000 0.614300
vn -0.0000 0.0554 -0.9985
vn -0.0000 0.0799 -0.9968
vn -0.0000 0.1719 -0.9851
vn -0.0000 0.2125 -0.9772
vn -0.0000 0.2841 -0.9588
vn -0.0000 0.3527 -0.9358
vn -0.0000 0.4327 -0.9015
vn -0.0000 0.5100 -0.8602
vn -0.0000 0.6081 -0.7939
vn -0.0000 0.6086 -0.7935
vn -0.0000 0.6070 -0.7947
vn -0.0000 0.6709 -0.7416
vn -0.0000 0.7092 -0.7050
vn -0.0000 0.7237 -0.6901
vn -0.0000 0.7858 -0.6185
vn -0.0000 0.8085 -0.5885
vn -0.0000 0.8288 -0.5595
vn -0.0000 0.8762 -0.4820
vn -0.0000 0.8691 -0.4947
vn -0.0000 0.9137 -0.4064
vn -0.0000 0.9251 -0.3797
vn -0.0000 0.9247 -0.3806
vn -0.0000 0.9262 -0.3770
vn -0.0000 0.9397 -0.3421
vn -0.0000 0.9514 -0.3078
vn -0.0000 0.9617 -0.2740
vn -0.0000 0.9706 -0.2406
vn -0.0000 0.9782 -0.2077
vn -0.0000 0.9845 -0.1751
vn -0.0000 0.9897 -0.1428
vn -0.0000 0.9938 -0.1108
vn -0.0000 0.9969 -0.0790
vn -0.0000 0.9989 -0.0474
vn -0.0000 0.9999 -0.0158
vn 0.0000 0.9999 0.0158
vn 0.0000 0.9989 0.0474
vn 0.0000 0.9969 0.0790
vn 0.0000 0.9938 0.1108
vn 0.0000 0.9897 0.1428
vn 0.0000 0.9804 0.1971
vn 0.0000 0.9707 0.2404
vn 0.0000 0.9589 0.2837
vn 0.0000 0.9377 0.3475
vn 0.0000 0.8993 0.4374
vn 0.0000 0.8297 0.5582
vn 0.0000 0.7483 0.6634
vn 0.0000 0.7091 0.7051
vn 0.0000 0.6804 0.7329
vn 0.0000 0.6496 0.7602
vn 0.0000 0.6347 0.7727
vn 0.0000 0.6124 0.7906
vn 0.0000 0.6144 0.7890
vn 0.0000 0.6082 0.7938
vn 0.0000 0.6262 0.7796
vn 0.0000 0.6240 0.7815
vn 0.0000 0.6310 0.7758
vn 0.0000 0.6544 0.7562
vn 0.0000 0.6994 0.7147
vn 0.0000 0.7459 0.6661
vn 0.0000 0.8371 0.5471
vn 0.0000 0.8736 0.4867
vn 0.0000 0.8616 0.5076
vn 0.0000 0.8397 0.5430
vn 0.0000 0.7758 0.6309
vn 0.0000 0.6766 0.7364
vn 0.0000 0.5603 0.8283
vn 0.0000 0.2792 0.9602
vn 0.0000 -0.0138 0.9999
vn 0.0000 -0.3147 0.9492
vn 0.0000 -0.3646 0.9312
vn 0.0000 -0.1044 0.9945
vn 0.0000 -0.2606 0.9654
vn -0.0000 -0.1044 -0.9945
vn -0.0000 -0.0628 -0.9980
vn -0.0000 -0.0037 -1.0000
usemtl None
s 1
f 69/1/1 55/2/1 127/3/1 129/4/1
f 70/5/2 69/1/2 129/4/2 132/6/2
f 68/7/3 70/5/3 132/6/3 131/8/3
f 67/9/4 68/7/4 131/8/4 130/10/4
f 71/11/5 67/9/5 130/10/5 141/12/5
f 64/13/6 71/11/6 141/12/6 133/14/6
f 65/15/7 64/13/7 133/14/7 135/16/7
f 62/17/8 65/15/8 135/16/8 134/18/8
f 63/19/9 62/17/10 134/18/10 140/20/9
f 66/21/11 63/19/9 140/20/9 137/22/11
f 60/23/12 66/21/12 137/22/12 136/24/12
f 138/25/13 61/26/13 60/23/13 136/24/13
f 139/27/14 59/28/14 61/26/14 138/25/14
f 142/29/15 72/30/15 59/28/15 139/27/15
f 143/31/16 57/32/16 72/30/16 142/29/16
f 144/33/17 58/34/17 57/32/17 143/31/17
f 75/35/18 56/36/18 58/34/18 144/33/18
f 76/37/19 3/38/19 56/36/19 75/35/19
f 79/39/20 6/40/20 3/38/20 76/37/20
f 82/41/21 9/42/21 6/40/22 79/39/22
f 85/43/23 12/44/23 9/42/21 82/41/21
f 88/45/24 15/46/24 12/44/24 85/43/24
f 91/47/25 18/48/25 15/46/25 88/45/25
f 94/49/26 21/50/26 18/48/26 91/47/26
f 97/51/27 24/52/27 21/50/27 94/49/27
f 100/53/28 27/54/28 24/52/28 97/51/28
f 103/55/29 30/56/29 27/54/29 100/53/29
f 107/57/30 33/58/30 30/56/30 103/55/30
f 111/59/31 36/60/31 33/58/31 107/57/31
f 114/61/32 39/62/32 36/60/32 111/59/32
f 117/63/33 43/64/33 39/62/33 114/61/33
f 120/65/34 45/66/34 43/64/34 117/63/34
f 123/67/35 48/68/35 45/66/35 120/65/35
f 126/69/36 51/70/36 48/68/36 123/67/36
f 128/71/37 54/72/37 51/70/37 126/69/37
f 73/73/38 1/74/38 54/72/38 128/71/38
f 77/75/39 4/76/39 1/74/39 73/73/39
f 80/77/40 7/78/40 4/76/40 77/75/40
f 83/79/41 10/80/41 7/78/41 80/77/41
f 86/81/42 13/82/42 10/80/42 83/79/42
f 89/83/43 16/84/43 13/82/43 86/81/43
f 92/85/44 19/86/44 16/84/44 89/83/44
f 95/87/45 22/88/45 19/86/45 92/85/45
f 98/89/46 26/90/46 22/88/46 95/87/46
f 101/91/47 29/92/47 26/90/47 98/89/47
f 104/93/48 32/94/48 29/92/48 101/91/48
f 106/95/49 34/96/49 32/94/49 104/93/49
f 109/97/50 37/98/50 34/96/50 106/95/50
f 112/99/51 40/100/51 37/98/52 109/97/52
f 115/101/53 42/102/53 40/100/51 112/99/51
f 118/103/54 44/104/54 42/102/55 115/101/55
f 122/105/56 47/106/56 44/104/54 118/103/54
f 125/107/57 50/108/57 47/106/57 122/105/57
f 74/109/58 53/110/58 50/108/58 125/107/58
f 78/111/59 2/112/59 53/110/59 74/109/59
f 81/113/60 5/114/60 2/112/60 78/111/60
f 84/115/61 8/116/61 5/114/61 81/113/61
f 87/117/62 11/118/62 8/116/62 84/115/62
f 90/119/63 14/120/63 11/118/63 87/117/63
f 93/121/64 17/122/64 14/120/64 90/119/64
f 96/123/65 20/124/65 17/122/65 93/121/65
f 99/125/66 23/126/66 20/124/66 96/123/66
f 102/127/67 25/128/67 23/126/67 99/125/67
f 105/129/68 28/130/68 25/128/68 102/127/68
f 108/131/69 31/132/69 28/130/69 105/129/69
f 110/133/70 35/134/70 31/132/70 108/131/70
f 113/135/71 38/136/71 35/134/71 110/133/71
f 116/137/72 41/138/72 38/136/72 113/135/72
f 121/139/73 49/140/73 46/141/73 119/142/73
f 124/143/74 52/144/74 49/140/74 121/139/74
f 127/145/75 55/146/75 52/144/75 124/143/75
