# Blender v2.91.2 OBJ File: 'EightSideDie.blend'
# www.blender.org
v 0.000000 0.000000 -0.025000
v 0.025000 0.000000 0.000000
v -0.000000 0.000000 0.025000
v -0.025000 0.000000 -0.000000
v 0.000000 0.025000 0.000000
v 0.000000 -0.025000 0.000000
vn 0.5774 0.5774 -0.5774
vn 0.5774 0.5774 0.5774
vn -0.5774 -0.5774 -0.5774
vn -0.5774 0.5774 0.5774
vn -0.5774 0.5774 -0.5774
vn 0.5774 -0.5774 -0.5774
vn 0.5774 -0.5774 0.5774
vn -0.5774 -0.5774 0.5774
s off
f 1//1 5//1 2//1
f 2//2 5//2 3//2
f 1//3 6//3 4//3
f 3//4 5//4 4//4
f 4//5 5//5 1//5
f 2//6 6//6 1//6
f 3//7 6//7 2//7
f 4//8 6//8 3//8
