# Blender v2.91.2 OBJ File: 'border.blend'
# www.blender.org
mtllib inner.mtl
o Icosphere.001
v -0.001176 0.009035 -0.009987
v 0.001287 0.009044 -0.009987
v 0.003864 0.008339 -0.009977
v 0.007090 0.005826 -0.009987
v 0.008663 0.002835 -0.009987
v 0.009126 -0.000000 -0.009987
v 0.008663 -0.002835 -0.009987
v 0.007090 -0.005826 -0.009987
v 0.003865 -0.008340 -0.009976
v 0.001287 -0.009044 -0.009987
v -0.002267 -0.008897 -0.009987
v -0.005319 -0.007404 -0.009987
v -0.007387 -0.005367 -0.009987
v -0.008675 -0.002798 -0.009987
v -0.009160 0.000546 -0.009987
v -0.008249 0.003912 -0.009987
v -0.006098 0.006850 -0.009987
v -0.003608 0.008402 -0.009979
v -0.006315 0.006672 0.009986
v -0.008502 0.003359 0.009987
v -0.009126 0.000000 0.009987
v -0.008502 -0.003359 0.009987
v -0.006272 -0.006705 0.009987
v -0.002483 -0.008814 0.009985
v 0.001113 -0.009114 0.009987
v 0.004568 -0.007922 0.009982
v 0.006312 -0.006663 0.009976
v 0.007557 -0.005160 0.009980
v 0.008675 -0.002798 0.009987
v 0.009160 0.000546 0.009987
v 0.008107 0.004339 0.009973
v 0.006026 0.006907 0.009988
v 0.003608 0.008401 0.009980
v 0.000546 0.009126 0.009987
v -0.003366 0.008550 0.009978
v -0.009988 0.008922 -0.002069
v -0.009985 0.007289 -0.005574
v -0.009987 0.004858 -0.007728
v -0.009987 0.002252 -0.008832
v -0.009987 -0.001184 -0.009104
v -0.009987 -0.004858 -0.007728
v -0.009985 -0.007289 -0.005574
v -0.009981 -0.008521 -0.003342
v -0.009985 -0.009144 -0.000479
v -0.009987 -0.008669 0.002851
v -0.009969 -0.007155 0.005791
v -0.009987 -0.005725 0.007120
v -0.009987 -0.002042 0.008916
v -0.009987 0.001498 0.009004
v -0.009986 0.004137 0.008154
v -0.009987 0.006979 0.005947
v -0.009985 0.008859 0.002424
v 0.009987 -0.008669 -0.002851
v 0.009984 -0.006849 -0.006129
v 0.009986 -0.004137 -0.008154
v 0.009987 -0.001498 -0.009004
v 0.009987 0.002042 -0.008916
v 0.009985 0.005768 -0.007099
v 0.009988 0.008327 -0.003907
v 0.009985 0.009144 0.000479
v 0.009987 0.008648 0.002873
v 0.009985 0.007289 0.005574
v 0.009985 0.004602 0.007906
v 0.009987 0.001184 0.009104
v 0.009987 -0.002252 0.008832
v 0.009977 -0.004412 0.008060
v 0.009985 -0.007289 0.005574
v 0.009987 -0.008648 0.002873
v 0.009985 -0.009144 0.000479
v 0.006395 -0.009987 -0.006531
v 0.008628 -0.009986 -0.003086
v 0.009129 -0.009987 -0.000028
v 0.008245 -0.009977 0.004179
v 0.007150 -0.009987 0.005746
v 0.003331 -0.009988 0.008556
v -0.000998 -0.009987 0.009119
v -0.003681 -0.009963 0.008447
v -0.006395 -0.009987 0.006531
v -0.008628 -0.009986 0.003086
v -0.009129 -0.009987 0.000028
v -0.008661 -0.009987 -0.002834
v -0.007150 -0.009987 -0.005746
v -0.003332 -0.009988 -0.008558
v 0.000998 -0.009988 -0.009106
v 0.004266 -0.009987 -0.008052
v 0.006395 0.009987 -0.006531
v 0.004266 0.009987 -0.008052
v 0.000998 0.009988 -0.009106
v -0.003332 0.009988 -0.008558
v -0.007150 0.009987 -0.005746
v -0.008661 0.009987 -0.002834
v -0.009129 0.009987 0.000028
v -0.008504 0.009986 0.003520
v -0.006442 0.009984 0.006486
v -0.004806 0.009987 0.007776
v -0.000998 0.009988 0.009106
v 0.003332 0.009988 0.008558
v 0.007150 0.009987 0.005746
v 0.008245 0.009977 0.004179
v 0.009129 0.009987 -0.000028
v 0.008628 0.009986 -0.003086
vt 0.237059 0.727982
vt 0.265899 0.727371
vt 0.298357 0.716710
vt 0.329480 0.690547
vt 0.349103 0.655358
vt 0.353556 0.628509
vt 0.349103 0.594641
vt 0.329480 0.559453
vt 0.298356 0.533289
vt 0.265900 0.522629
vt 0.224727 0.525150
vt 0.189204 0.541053
vt 0.166214 0.564120
vt 0.151980 0.591309
vt 0.147172 0.631312
vt 0.156972 0.670772
vt 0.179270 0.700131
vt 0.211864 0.721584
vt 0.821406 0.699015
vt 0.846590 0.661652
vt 0.853556 0.621492
vt 0.846590 0.588348
vt 0.819437 0.549189
vt 0.780771 0.526104
vt 0.738525 0.522827
vt 0.700243 0.533911
vt 0.677721 0.550670
vt 0.661269 0.570874
vt 0.651980 0.591310
vt 0.647172 0.631312
vt 0.656972 0.670771
vt 0.681290 0.701979
vt 0.711864 0.721584
vt 0.745103 0.728212
vt 0.781999 0.723502
vt 0.520259 0.726166
vt 0.560374 0.708850
vt 0.587643 0.680479
vt 0.600066 0.652079
vt 0.601871 0.610926
vt 0.587643 0.569521
vt 0.560374 0.541150
vt 0.531585 0.526187
vt 0.502495 0.521438
vt 0.469626 0.526010
vt 0.441969 0.538809
vt 0.418809 0.560943
vt 0.398796 0.604165
vt 0.398296 0.644572
vt 0.407518 0.671749
vt 0.433016 0.703517
vt 0.470798 0.723790
vt 0.530374 0.223990
vt 0.567821 0.202799
vt 0.592482 0.171749
vt 0.601704 0.144573
vt 0.601204 0.104166
vt 0.579516 0.058721
vt 0.542490 0.031617
vt 0.497505 0.021438
vt 0.468414 0.026187
vt 0.439626 0.041150
vt 0.411563 0.070796
vt 0.398129 0.111021
vt 0.399934 0.152079
vt 0.412358 0.180479
vt 0.439626 0.208850
vt 0.468415 0.223813
vt 0.497505 0.228562
vt 0.573324 0.802037
vt 0.536919 0.778351
vt 0.496673 0.771440
vt 0.469181 0.775982
vt 0.434936 0.795211
vt 0.403325 0.839424
vt 0.397456 0.886113
vt 0.407951 0.922826
vt 0.426676 0.947963
vt 0.463081 0.971649
vt 0.503328 0.978560
vt 0.530819 0.974018
vt 0.565064 0.954789
vt 0.595353 0.912888
vt 0.602222 0.861207
vt 0.592049 0.827174
vt 0.573324 0.447963
vt 0.592049 0.422826
vt 0.602222 0.388794
vt 0.595353 0.337112
vt 0.565064 0.295211
vt 0.530818 0.275982
vt 0.503327 0.271440
vt 0.461307 0.279042
vt 0.433242 0.295482
vt 0.412147 0.320685
vt 0.397778 0.361206
vt 0.404647 0.412888
vt 0.434936 0.454789
vt 0.469181 0.474018
vt 0.496672 0.478560
vt 0.536919 0.471649
vn 0.0001 0.0001 -1.0000
vn 0.0003 0.0001 1.0000
vn -1.0000 -0.0002 0.0000
vn 1.0000 -0.0001 0.0001
vn -0.0000 -1.0000 0.0003
vn 0.0001 1.0000 0.0001
usemtl None.002
s 1
f 1/1/1 2/2/1 3/3/1 4/4/1 5/5/1 6/6/1 7/7/1 8/8/1 9/9/1 10/10/1 11/11/1 12/12/1 13/13/1 14/14/1 15/15/1 16/16/1 17/17/1 18/18/1
f 19/19/2 20/20/2 21/21/2 22/22/2 23/23/2 24/24/2 25/25/2 26/26/2 27/27/2 28/28/2 29/29/2 30/30/2 31/31/2 32/32/2 33/33/2 34/34/2 35/35/2
f 36/36/3 37/37/3 38/38/3 39/39/3 40/40/3 41/41/3 42/42/3 43/43/3 44/44/3 45/45/3 46/46/3 47/47/3 48/48/3 49/49/3 50/50/3 51/51/3 52/52/3
f 53/53/4 54/54/4 55/55/4 56/56/4 57/57/4 58/58/4 59/59/4 60/60/4 61/61/4 62/62/4 63/63/4 64/64/4 65/65/4 66/66/4 67/67/4 68/68/4 69/69/4
f 70/70/5 71/71/5 72/72/5 73/73/5 74/74/5 75/75/5 76/76/5 77/77/5 78/78/5 79/79/5 80/80/5 81/81/5 82/82/5 83/83/5 84/84/5 85/85/5
f 86/86/6 87/87/6 88/88/6 89/89/6 90/90/6 91/91/6 92/92/6 93/93/6 94/94/6 95/95/6 96/96/6 97/97/6 98/98/6 99/99/6 100/100/6 101/101/6
